HIERARCHY
ROOT hips
{
  OFFSET 0 10.6860622 2.3727825e-15
  CHANNELS 6 Xposition Yposition Zposition Yrotation Xrotation Zrotation
  JOINT leftUpperLeg
  {
    OFFSET 0.6642549969 -0.9402397400000004 0
    CHANNELS 3 Yrotation Xrotation Zrotation
    JOINT leftLowerLeg
    {
      OFFSET 0 -3.997221335632195 0
      CHANNELS 3 Yrotation Xrotation Zrotation
      JOINT leftFoot
      {
        OFFSET -0.13777839790000004 -4.6145792000000005 -0.22186036399999998
        CHANNELS 3 Yrotation Xrotation Zrotation
        JOINT leftToes
        {
          OFFSET -0.03777410834999995 -0.9130806927000008 0.85230013
          CHANNELS 3 Yrotation Xrotation Zrotation
          End Site
          {
            OFFSET -0.03777410834999995 -0.9130806927000008 0.85230013
          }
        }
      }
    }
  }
  JOINT rightUpperLeg
  {
    OFFSET -0.6642778626 -0.9402397400000004 0
    CHANNELS 3 Yrotation Xrotation Zrotation
    JOINT rightLowerLeg
    {
      OFFSET 0 -3.997221452859387 0
      CHANNELS 3 Yrotation Xrotation Zrotation
      JOINT rightFoot
      {
        OFFSET 0.1377926176 -4.6145792000000005 -0.22185782299999995
        CHANNELS 3 Yrotation Xrotation Zrotation
        JOINT rightToes
        {
          OFFSET 0.037780746850000047 -0.9130806927000008 0.85230167
          CHANNELS 3 Yrotation Xrotation Zrotation
          End Site
          {
            OFFSET 0.037780746850000047 -0.9130806927000008 0.85230167
          }
        }
      }
    }
  }
  JOINT spine
  {
    OFFSET 0 0.13988381660000015 0
    CHANNELS 3 Yrotation Xrotation Zrotation
    JOINT chest
    {
      OFFSET 0 0.6191039003973773 0
      CHANNELS 3 Yrotation Xrotation Zrotation
      JOINT upperChest
      {
        OFFSET 0 0.9855186130586943 0
        CHANNELS 3 Yrotation Xrotation Zrotation
        JOINT leftShoulder
        {
          OFFSET 0.1807663869 1.5087829790000005 0
          CHANNELS 3 Yrotation Xrotation Zrotation
          JOINT leftUpperArm
          {
            OFFSET 0.5985063006419806 0 0
            CHANNELS 3 Yrotation Xrotation Zrotation
            JOINT leftLowerArm
            {
              OFFSET 2.2993332369501065 0 0
              CHANNELS 3 Yrotation Xrotation Zrotation
              JOINT leftHand
              {
                OFFSET 2.395047042602395 0 0
                CHANNELS 3 Yrotation Xrotation Zrotation
                JOINT leftIndexProximal
                {
                  OFFSET 0.5766295810000004 0.04556643899499946 0.17265095988184
                  CHANNELS 3 Yrotation Xrotation Zrotation
                  JOINT leftIndexIntermediate
                  {
                    OFFSET 0.2957229000000008 -0.019352197700001517 -0.007932640616999987
                    CHANNELS 3 Yrotation Xrotation Zrotation
                    JOINT leftIndexDistal
                    {
                      OFFSET 0.19008243099999922 -0.012484908149998475 -0.002786250786000012
                      CHANNELS 3 Yrotation Xrotation Zrotation
                      End Site
                      {
                        OFFSET 0.19008243099999922 -0.012484908149998475 -0.002786250786000012
                      }
                    }
                  }
                }
                JOINT leftMiddleProximal
                {
                  OFFSET 0.5834975091000001 0.0524350405149987 0.02204081888183999
                  CHANNELS 3 Yrotation Xrotation Zrotation
                  JOINT leftMiddleIntermediate
                  {
                    OFFSET 0.33880573540000003 -0.019871473270000717 -0.00000971183179999946
                    CHANNELS 3 Yrotation Xrotation Zrotation
                    JOINT leftMiddleDistal
                    {
                      OFFSET 0.20676022730000088 -0.012221336379999448 0.0001471936708000235
                      CHANNELS 3 Yrotation Xrotation Zrotation
                      End Site
                      {
                        OFFSET 0.20676022730000088 -0.012221336379999448 0.0001471936708000235
                      }
                    }
                  }
                }
                JOINT leftLittleProximal
                {
                  OFFSET 0.5344154683999995 -0.012880921405001189 -0.24414037221816004
                  CHANNELS 3 Yrotation Xrotation Zrotation
                  JOINT leftLittleIntermediate
                  {
                    OFFSET 0.21758961730000093 -0.011650919939999227 0.011893592810000034
                    CHANNELS 3 Yrotation Xrotation Zrotation
                    JOINT leftLittleDistal
                    {
                      OFFSET 0.1475273964999999 -0.008152365682999818 0.006001092492999946
                      CHANNELS 3 Yrotation Xrotation Zrotation
                      End Site
                      {
                        OFFSET 0.1475273964999999 -0.008152365682999818 0.006001092492999946
                      }
                    }
                  }
                }
                JOINT leftRingProximal
                {
                  OFFSET 0.5799399463000003 0.026911854694997794 -0.12150566991816003
                  CHANNELS 3 Yrotation Xrotation Zrotation
                  JOINT leftRingIntermediate
                  {
                    OFFSET 0.26167887460000006 -0.013480186499999602 0.010996293000000053
                    CHANNELS 3 Yrotation Xrotation Zrotation
                    JOINT leftRingDistal
                    {
                      OFFSET 0.17667108799999987 -0.008990287899999228 0.0055541023999999065
                      CHANNELS 3 Yrotation Xrotation Zrotation
                      End Site
                      {
                        OFFSET 0.17667108799999987 -0.008990287899999228 0.0055541023999999065
                      }
                    }
                  }
                }
                JOINT leftThumbProximal
                {
                  OFFSET 0.11018806699999972 -0.09448718900500053 0.17047963138184
                  CHANNELS 3 Yrotation Xrotation Zrotation
                  JOINT leftThumbIntermediate
                  {
                    OFFSET 0.31062601459999983 -0.08126270900000132 0.15443142000000007
                    CHANNELS 3 Yrotation Xrotation Zrotation
                    JOINT leftThumbDistal
                    {
                      OFFSET 0.21627175790000086 -0.08833193599999878 0.018771167799999988
                      CHANNELS 3 Yrotation Xrotation Zrotation
                      End Site
                      {
                        OFFSET 0.21627175790000086 -0.08833193599999878 0.018771167799999988
                      }
                    }
                  }
                }
              }
            }
          }
        }
        JOINT neck
        {
          OFFSET 0 1.5463305265074576 0
          CHANNELS 3 Yrotation Xrotation Zrotation
          JOINT head
          {
            OFFSET 0 0.8456443600000344 0
            CHANNELS 3 Yrotation Xrotation Zrotation
            JOINT leftEye
            {
              OFFSET 0.30408573140000006 0.5104519199999995 0.1276382305
              CHANNELS 3 Yrotation Xrotation Zrotation
              End Site
              {
                OFFSET 0.30408573140000006 0.5104519199999995 0.1276382305
              }
            }
            JOINT rightEye
            {
              OFFSET -0.30409491089999996 0.5104519199999995 0.1276379445
              CHANNELS 3 Yrotation Xrotation Zrotation
              End Site
              {
                OFFSET -0.30409491089999996 0.5104519199999995 0.1276379445
              }
            }
            JOINT jaw
            {
              OFFSET -3.155239131000001e-7 -0.11984121820000082 0.60178107
              CHANNELS 3 Yrotation Xrotation Zrotation
              End Site
              {
                OFFSET -3.155239131000001e-7 -0.11984121820000082 0.60178107
              }
            }
          }
        }
        JOINT rightShoulder
        {
          OFFSET -0.1807303465 1.5087829790000005 0
          CHANNELS 3 Yrotation Xrotation Zrotation
          JOINT rightUpperArm
          {
            OFFSET -0.5985063796536958 0 0
            CHANNELS 3 Yrotation Xrotation Zrotation
            JOINT rightLowerArm
            {
              OFFSET -2.2993322059002854 0 0
              CHANNELS 3 Yrotation Xrotation Zrotation
              JOINT rightHand
              {
                OFFSET -2.395045314457259 0 0
                CHANNELS 3 Yrotation Xrotation Zrotation
                JOINT rightIndexProximal
                {
                  OFFSET -0.5764487688300002 0.0441371204405987 0.17361932004999997
                  CHANNELS 3 Yrotation Xrotation Zrotation
                  JOINT rightIndexIntermediate
                  {
                    OFFSET -0.29573011380000047 -0.01934826376999843 -0.007698921482999974
                    CHANNELS 3 Yrotation Xrotation Zrotation
                    JOINT rightIndexDistal
                    {
                      OFFSET -0.19008373999999884 -0.012503266380000655 -0.0026365778999999897
                      CHANNELS 3 Yrotation Xrotation Zrotation
                      End Site
                      {
                        OFFSET -0.19008373999999884 -0.012503266380000655 -0.0026365778999999897
                      }
                    }
                  }
                }
                JOINT rightMiddleProximal
                {
                  OFFSET -0.5834852037300005 0.05211639405060153 0.02307162440000001
                  CHANNELS 3 Yrotation Xrotation Zrotation
                  JOINT rightMiddleIntermediate
                  {
                    OFFSET -0.33880114510000003 -0.019952774050000954 0.0002455003561999819
                    CHANNELS 3 Yrotation Xrotation Zrotation
                    JOINT rightMiddleDistal
                    {
                      OFFSET -0.20675694929999955 -0.012273788999999091 0.00030209124000002766
                      CHANNELS 3 Yrotation Xrotation Zrotation
                      End Site
                      {
                        OFFSET -0.20675694929999955 -0.012273788999999091 0.00030209124000002766
                      }
                    }
                  }
                }
                JOINT rightLittleProximal
                {
                  OFFSET -0.5346811737299992 -0.011214256288399227 -0.24363941305000003
                  CHANNELS 3 Yrotation Xrotation Zrotation
                  JOINT rightLittleIntermediate
                  {
                    OFFSET -0.21757715980000092 -0.011771559690000988 0.01201554387
                    CHANNELS 3 Yrotation Xrotation Zrotation
                    JOINT rightLittleDistal
                    {
                      OFFSET -0.1475201849000004 -0.00822055339600003 0.006082065407000015
                      CHANNELS 3 Yrotation Xrotation Zrotation
                      End Site
                      {
                        OFFSET -0.1475201849000004 -0.00822055339600003 0.006082065407000015
                      }
                    }
                  }
                }
                JOINT rightRingProximal
                {
                  OFFSET -0.5800810755299999 0.027657985680600072 -0.12066365025000003
                  CHANNELS 3 Yrotation Xrotation Zrotation
                  JOINT rightRingIntermediate
                  {
                    OFFSET -0.26166445029999974 -0.013623118409999302 0.011164098990000045
                    CHANNELS 3 Yrotation Xrotation Zrotation
                    JOINT rightRingDistal
                    {
                      OFFSET -0.17666387530000027 -0.009072900100000503 0.005668185599999959
                      CHANNELS 3 Yrotation Xrotation Zrotation
                      End Site
                      {
                        OFFSET -0.17666387530000027 -0.009072900100000503 0.005668185599999959
                      }
                    }
                  }
                }
                JOINT rightThumbProximal
                {
                  OFFSET -0.10997596379000074 -0.09577489355940072 0.16989765924999997
                  CHANNELS 3 Yrotation Xrotation Zrotation
                  JOINT rightThumbIntermediate
                  {
                    OFFSET -0.31036620999999986 -0.08229339117999834 0.15440884469999996
                    CHANNELS 3 Yrotation Xrotation Zrotation
                    JOINT rightThumbDistal
                    {
                      OFFSET -0.21631306399999906 -0.08825326400000111 0.018656797720000014
                      CHANNELS 3 Yrotation Xrotation Zrotation
                      End Site
                      {
                        OFFSET -0.21631306399999906 -0.08825326400000111 0.018656797720000014
                      }
                    }
                  }
                }
              }
            }
          }
        }
      }
    }
  }
}
MOTION
Frames: 9
Frame Time: 0.03333333333333333
0.08787216641015214 -6.755629126739733 1.118371270288888 0 22.92390458054831 0 -174.80678434260793 -53.97674943846201 -151.14066864845043 169.53582265200617 72.12169220011731 -176.2516135320061 5.843849534294264 -12.234746629210335 -2.324797607404893 0 0 0 174.83726769501538 -53.95042943388028 151.10574648460994 -169.46470235931383 72.10779215212801 176.27474679159943 -5.8599203028392175 -12.237494164525536 2.3285236828427753 0 0 0 0 -16.615964068432582 0 -0.32915557094473163 3.834749556023134 0.8516343205831409 0 0 0 6.830307586524777 -45.81464800065512 -26.298457852449626 23.98952106309855 3.854711313182581 -13.950298618602128 0.8361193684657612 -20.45790418047113 -50.8065439802715 6.390525874949477 7.277920970164516 6.571560878511591 0 0 0 0 0 0 0 0 0 0 0 0 0 0 0 0 0 0 0 0 0 0 0 0 0 0 0 0 0 0 0 0 0 0 0 0 0 0 0 0 0 0 0 0 0 -1.1158751604777162 -19.499102321943262 -0.8650294341385145 0 -6.001658213731149 0 0 0 0 0 0 0 0 0 0 -6.206892595383498 -45.841211433107645 24.74568488247315 -24.00341352395708 3.894901946163164 14.36034514499708 -1.0785397738223161 -20.223631188872208 51.23689437209395 -6.208997848151625 7.428901837310192 -6.751294467490582 0 0 0 0 0 0 0 0 0 0 0 0 0 0 0 0 0 0 0 0 0 0 0 0 0 0 0 0 0 0 0 0 0 0 0 0 0 0 0 0 0 0 0 0 0
0.08787216641015214 -6.733700672997212 1.1064801507086721 0 23.349729680578854 0 -175.04060897530036 -53.78209319269218 -151.10947128879155 169.59524899003753 72.40401309596653 -176.20012916940567 6.075816948175674 -12.144004869910294 -2.4142396878709302 0 0 0 175.07074261435352 -53.75567584054839 151.07496698791246 -169.52337893843045 72.39039411262347 176.22428339885263 -6.091617487025625 -12.146385542063738 2.417999180483338 0 0 0 0 -16.290606811342062 0 -0.32932427144333126 4.160069757550994 0.8497566883284586 0 0 0 6.591458824233242 -46.008037585379824 -26.047701876199305 23.98952106309855 3.854711313182581 -13.950298618602128 0.8520334826910496 -20.433395422319116 -51.02240049184875 5.606271515439592 7.06664144589209 6.140795498971977 0 0 0 0 0 0 0 0 0 0 0 0 0 0 0 0 0 0 0 0 0 0 0 0 0 0 0 0 0 0 0 0 0 0 0 0 0 0 0 0 0 0 0 0 0 -1.2276022789295615 -19.50260568342965 -0.9516273297550962 0 -6.216574974834124 0 0 0 0 0 0 0 0 0 0 -5.986954565557312 -46.04823339487921 24.580302039582172 -24.00341352395708 3.894901946163164 14.36034514499708 -1.0854343123106112 -20.208362559717223 51.40426338164584 -5.446545335721002 7.228757430021353 -6.301123282446752 0 0 0 0 0 0 0 0 0 0 0 0 0 0 0 0 0 0 0 0 0 0 0 0 0 0 0 0 0 0 0 0 0 0 0 0 0 0 0 0 0 0 0 0 0
0.08787216641015214 -6.711772756039235 1.0945890311284565 0 23.775529729788307 0 -175.27317156627032 -53.587351970191 -151.07978302120742 169.65647738429496 72.68629134673145 -176.14683179041992 6.307553880384312 -12.052911641987711 -2.5032722684815063 0 0 0 175.30295841622265 -53.56084366832208 151.04567585508485 -169.583823173676 72.67296199291633 176.17204206375462 -6.323082229827861 -12.05492133970429 2.5070614904995394 0 0 0 0 -15.965264666961206 0 -0.32950476767003906 4.485378351975648 0.8478780209898711 0 0 0 6.350561736825546 -46.20068955770072 -25.79491373337255 23.98952106309855 3.854711313182581 -13.950298618602128 0.8678380051742314 -20.408832268212034 -51.23820586823405 4.824179999782843 6.849592109425227 5.713278660300834 0 0 0 0 0 0 0 0 0 0 0 0 0 0 0 0 0 0 0 0 0 0 0 0 0 0 0 0 0 0 0 0 0 0 0 0 0 0 0 0 0 0 0 0 0 -1.3393515944604577 -19.506268534424816 -1.0382394329476192 0 -6.431488941066612 0 0 0 0 0 0 0 0 0 0 -5.7653311429765495 -46.25480929382095 24.41315461566773 -24.00341352395708 3.894901946163164 14.36034514499708 -1.092283771221064 -20.193077234396878 51.57161486475086 -4.686210313382802 7.0227458402909075 -5.853975096445159 0 0 0 0 0 0 0 0 0 0 0 0 0 0 0 0 0 0 0 0 0 0 0 0 0 0 0 0 0 0 0 0 0 0 0 0 0 0 0 0 0 0 0 0 0
0.08787216641015214 -6.689844570688987 1.0826976431559692 0 24.201290674387277 0 -175.50449104357932 -53.39254761494182 -151.05154248448193 169.71958429834308 72.96854357588349 -176.09165827358285 6.539062977248551 -11.961468819896707 -2.5918947778054435 0 0 0 175.53394066131156 -53.36594893177305 151.0178328669662 -169.64611934121828 72.95548953930293 176.11794554062814 -6.554320664636855 -11.963115653032158 2.5957159546879836 0 0 0 0 -15.639937735659142 0 -0.3296950306584209 4.810671252734309 0.8459964250559878 0 0 0 6.107599920884418 -46.39260823648916 -25.540084004052655 23.98952106309855 3.854711313182581 -13.950298618602128 0.883550455335748 -20.384214739677446 -51.453983022801374 4.044363185961134 6.626856917335612 5.28912497724941 0 0 0 0 0 0 0 0 0 0 0 0 0 0 0 0 0 0 0 0 0 0 0 0 0 0 0 0 0 0 0 0 0 0 0 0 0 0 0 0 0 0 0 0 0 -1.451124348046433 -19.510098132028077 -1.12486740566659 0 -6.6464001262131145 0 0 0 0 0 0 0 0 0 0 -5.5420005237491345 -46.46092686398068 24.244221033465777 -24.00341352395708 3.894901946163164 14.36034514499708 -1.099083344225581 -20.177771578345293 51.73893772550875 -3.9281083249386786 6.810943676613179 -5.4099653255500275 0 0 0 0 0 0 0 0 0 0 0 0 0 0 0 0 0 0 0 0 0 0 0 0 0 0 0 0 0 0 0 0 0 0 0 0 0 0 0 0 0 0 0 0 0
0.08787216641015214 -6.667916653731009 1.0708065235757536 0 24.627003820047406 0 -175.7345819824612 -53.19771865997576 -151.024762848843 169.78464727892157 73.25077552606561 -176.03451694225743 6.770339220747874 -11.869680016366843 -2.680106157507233 0 0 0 175.76369208335217 -53.17101303602379 150.9914337282401 -169.71034479516254 73.23801733839714 176.0619090993944 -6.785321696266547 -11.870958126277959 2.6839553914212684 0 0 0 0 -15.314629643936058 0 -0.32989710846468284 5.135944358265427 0.8441136401772624 0 0 0 5.862544597737184 -46.58374828448548 -25.283175264748195 23.98952106309855 3.854711313182581 -13.950298618602128 0.8991460005593621 -20.359542858225932 -51.66966550002449 3.2669392408136737 6.398522807779185 4.868445012302493 0 0 0 0 0 0 0 0 0 0 0 0 0 0 0 0 0 0 0 0 0 0 0 0 0 0 0 0 0 0 0 0 0 0 0 0 0 0 0 0 0 0 0 0 0 -1.5629190086248956 -19.51408180685271 -1.2115069286927744 0 -6.861309832465342 0 0 0 0 0 0 0 0 0 0 -5.316942218189439 -46.666573618890816 24.073478094392925 -24.00341352395708 3.894901946163164 14.36034514499708 -1.1058275199043242 -20.162451053514456 51.90622540875323 -3.1723550975772694 6.59343489854482 -4.969208582950436 0 0 0 0 0 0 0 0 0 0 0 0 0 0 0 0 0 0 0 0 0 0 0 0 0 0 0 0 0 0 0 0 0 0 0 0 0 0 0 0 0 0 0 0 0
0.08787216641015214 -6.645988199988488 1.0589151356032664 0 25.052664030341536 0 -175.96347247349533 -53.00278375173069 -150.99937919983174 169.85179118287684 73.5329691093252 -175.97529082924697 7.001383969706339 -11.777549707313883 -2.767904820167253 0 0 0 175.99225449799013 -52.97603429905146 150.96645577529927 -169.7766265845681 73.52048021076081 176.00381179597323 -7.016091540813278 -11.778463705585176 2.7717826786151054 0 0 0 0 -14.989347517715292 0 -0.3301090012160426 5.461188833149312 0.8422277703061776 0 0 0 5.615389344303161 -46.774128520683455 -25.02418006823844 23.98952106309855 3.854711313182581 -13.950298618602128 0.9146481329517993 -20.33481664535074 -51.88533649749955 2.492016511613593 6.164684816438329 4.451348841909917 0 0 0 0 0 0 0 0 0 0 0 0 0 0 0 0 0 0 0 0 0 0 0 0 0 0 0 0 0 0 0 0 0 0 0 0 0 0 0 0 0 0 0 0 0 -1.6747344970429219 -19.518230440227686 -1.298160450883875 0 -7.076211189743138 0 0 0 0 0 0 0 0 0 0 -5.090141938364195 -46.87174683821535 23.90091440021937 -24.00341352395708 3.894901946163164 14.36034514499708 -1.1125352940351567 -20.147112025510584 52.073513452732904 -2.4190585997652296 6.370304326208617 -4.53181460960917 0 0 0 0 0 0 0 0 0 0 0 0 0 0 0 0 0 0 0 0 0 0 0 0 0 0 0 0 0 0 0 0 0 0 0 0 0 0 0 0 0 0 0 0 0
0.08787216641015214 -6.624060283030511 1.0470240160230506 0 25.47824897672903 0 -176.1911768154981 -52.80785507042922 -150.9754137698145 169.92113202578537 73.81510489210675 -175.91385876006117 7.232192242130668 -11.685076255651955 -2.8552888562627206 0 0 0 176.2196265878041 -52.78098282583978 150.9428749349394 -169.84503903400423 73.80291862632099 175.9435785579969 -7.246626866110144 -11.685624644845568 2.859194008506421 0 0 0 0 -14.664101957584956 0 -0.3303327631887991 5.786403965411547 0.8403404548454815 0 0 0 5.366118503813182 -46.963722967825404 -24.763085248370732 23.98952106309855 3.854711313182581 -13.950298618602128 0.930052111479853 -20.31003430178097 -52.1009596847479 1.7196972386580645 5.9254327257265755 4.037936685655568 0 0 0 0 0 0 0 0 0 0 0 0 0 0 0 0 0 0 0 0 0 0 0 0 0 0 0 0 0 0 0 0 0 0 0 0 0 0 0 0 0 0 0 0 0 -1.7865707810412232 -19.522538609770088 -1.3848272733905949 0 -7.291106351182263 0 0 0 0 0 0 0 0 0 0 -4.861584085201131 -47.07644874024856 23.726512202602677 -24.00341352395708 3.894901946163164 14.36034514499708 -1.1191911778602626 -20.131752680027216 52.24078444879611 -1.6683261117703145 6.141643619505792 -4.097887163237384 0 0 0 0 0 0 0 0 0 0 0 0 0 0 0 0 0 0 0 0 0 0 0 0 0 0 0 0 0 0 0 0 0 0 0 0 0 0 0 0 0 0 0 0 0
0.08787216641015214 -6.602132097680261 1.035132896442835 0 25.90375109741164 0 -176.41770594696217 -52.6128515504296 -150.9528286624372 169.9927470220098 74.09719936571166 -175.85014965935503 7.462764623559234 -11.592267609420901 -2.94225772712511 0 0 0 176.4458357940344 -52.58590231304715 150.92067530303015 -169.9157087832326 74.08530099679298 175.8810815179942 -7.476926126554765 -11.592452378340486 2.9461879753290185 0 0 0 0 -14.338886747767832 0 -0.3305664234739728 6.111582160931381 0.8384518344540094 0 0 0 5.1147047500302945 -47.152510276342376 -24.499864098019664 23.98952106309855 3.854711313182581 -13.950298618602128 0.9453529171538032 -20.28520313166807 -52.31653131881147 0.9500888345985014 5.680873357607477 3.628311518265372 0 0 0 0 0 0 0 0 0 0 0 0 0 0 0 0 0 0 0 0 0 0 0 0 0 0 0 0 0 0 0 0 0 0 0 0 0 0 0 0 0 0 0 0 0 -1.898426477918809 -19.52700270475923 -1.4715058741829117 0 -7.50598972162592 0 0 0 0 0 0 0 0 0 0 -4.631234091904969 -47.28063623752329 23.5502371392556 -24.00341352395708 3.894901946163164 14.36034514499708 -1.1257917485618745 -20.116373021952068 52.40801427535593 -0.9202617323957888 5.9075443681755395 -3.6675297765288546 0 0 0 0 0 0 0 0 0 0 0 0 0 0 0 0 0 0 0 0 0 0 0 0 0 0 0 0 0 0 0 0 0 0 0 0 0 0 0 0 0 0 0 0 0
0.08787216641015214 -6.580203643937741 1.0232415084703481 0 26.32916642203788 0 -176.6430887858753 -52.41783913801707 -150.9316132361876 170.06678933475328 74.37924468813767 -175.78400803929614 7.693100013439968 -11.499121246775603 -3.028808286851286 0 0 0 176.67089728271188 -52.390802092786124 150.89984373511373 -169.98876917345288 74.36764408072065 175.81618608781446 -7.706983911593953 -11.498940895636471 3.0327637970628105 0 0 0 0 -14.013715058844443 0 -0.3308109958072702 6.436718372492051 0.8365597881515654 0 0 0 4.86115413516852 -47.34050908629294 -24.23452251572076 23.98952106309855 3.854711313182581 -13.950298618602128 0.9605505916069252 -20.26031769333554 -52.532050868613204 0.1832856850554622 5.4310996379414185 3.222567793598075 0 0 0 0 0 0 0 0 0 0 0 0 0 0 0 0 0 0 0 0 0 0 0 0 0 0 0 0 0 0 0 0 0 0 0 0 0 0 0 0 0 0 0 0 0 -2.0103025807984833 -19.531633608969354 -1.5581948698454777 0 -7.720863877772611 0 0 0 0 0 0 0 0 0 0 -4.399077919648298 -47.48432618321354 23.37207311408533 -24.00341352395708 3.894901946163164 14.36034514499708 -1.1323392090624715 -20.100976692776044 52.575207237431975 -0.1749630351708529 5.668098923181584 -3.2408408069737065 0 0 0 0 0 0 0 0 0 0 0 0 0 0 0 0 0 0 0 0 0 0 0 0 0 0 0 0 0 0 0 0 0 0 0 0 0 0 0 0 0 0 0 0 0
